<svg id="레이어_1" data-name="레이어 1" xmlns="http://www.w3.org/2000/svg" xmlns:xlink="http://www.w3.org/1999/xlink" viewBox="0 0 180 180"><defs><style>.cls-1{fill:url(#무제_그라디언트_47);}.cls-2{fill:#0b2859;}.cls-3{clip-path:url(#clip-path);}.cls-4{clip-path:url(#clip-path-2);}.cls-5{fill:#f3f7fa;}.cls-6{fill:#ffc610;}</style><linearGradient id="무제_그라디언트_47" x1="90" y1="-130.81" x2="90" y2="232.63" gradientUnits="userSpaceOnUse"><stop offset="0" stop-color="#ff9752"/><stop offset="0.12" stop-color="#ff904b"/><stop offset="0.3" stop-color="#ff7e38"/><stop offset="0.5" stop-color="#ff6019"/><stop offset="0.57" stop-color="#ff550d"/></linearGradient><clipPath id="clip-path"><rect class="cls-1" y="0.28" width="180" height="180" rx="15.52"/></clipPath><clipPath id="clip-path-2"><path class="cls-2" d="M140.35,76.42c-12.11-1.1-22.3-3.54-32.53-10-7.83-4.93-18.07-9.23-34.27-9.23C35,57.21,19.46,89,19.46,118.87q0,.94,0,1.89c.48,14-1.18,42.83-8.41,54.87C-3.55,200-11.85,227.17-11.85,297c0,100,13.7,134.72,85.4,134.72,57.38,0,85.39-23.75,85.39-134.72,0-77.78-7.41-102.34-22.83-124.66-7-10.06-12.69-32.06-12.69-41.71,0-11,2.06-22.29,12.47-29.38,10.63-7.23,30.94-9.83,32.49-16C169.87,79.26,155,77.75,140.35,76.42Z"/></clipPath></defs><rect class="cls-1" y="0.28" width="180" height="180" rx="15.52"/><g class="cls-3"><path class="cls-2" d="M140.35,76.42c-12.11-1.1-22.3-3.54-32.53-10-7.83-4.93-18.07-9.23-34.27-9.23C35,57.21,19.46,89,19.46,118.87q0,.94,0,1.89c.48,14-1.18,42.83-8.41,54.87C-3.55,200-11.85,227.17-11.85,297c0,100,13.7,134.72,85.4,134.72,57.38,0,85.39-23.75,85.39-134.72,0-77.78-7.41-102.34-22.83-124.66-7-10.06-12.69-32.06-12.69-41.71,0-11,2.06-22.29,12.47-29.38,10.63-7.23,30.94-9.83,32.49-16C169.87,79.26,155,77.75,140.35,76.42Z"/><g class="cls-4"><path class="cls-5" d="M103.48,140.05c-2.39-.47-7.83-.38-10.18.43a24.59,24.59,0,0,1-16.07,0A22,22,0,0,0,70,139.25c-30.6,0-60.81,66-60.81,147.42S34,434.1,64.63,434.1c.44,0,.88,0,1.32,0a222.46,222.46,0,0,1,27.81,0c.44,0,.88,0,1.32,0,30.6,0,61.89-66.26,55.41-147.43C143.87,203.89,125.35,144.28,103.48,140.05Z"/><circle class="cls-6" cx="179.67" cy="80.81" r="58.76"/></g><circle class="cls-5" cx="89.75" cy="90.08" r="11.43"/><circle class="cls-2" cx="89.75" cy="90.08" r="9.89"/></g></svg>